<?xml version="1.0" encoding="UTF-8" standalone="no"?>
<!-- Generator: Adobe Illustrator 19.1.0, SVG Export Plug-In . SVG Version: 6.00 Build 0)  -->

<svg
   xmlns:dc="http://purl.org/dc/elements/1.1/"
   xmlns:cc="http://creativecommons.org/ns#"
   xmlns:rdf="http://www.w3.org/1999/02/22-rdf-syntax-ns#"
   xmlns:svg="http://www.w3.org/2000/svg"
   xmlns="http://www.w3.org/2000/svg"
   xmlns:sodipodi="http://sodipodi.sourceforge.net/DTD/sodipodi-0.dtd"
   xmlns:inkscape="http://www.inkscape.org/namespaces/inkscape"
   version="1.1"
   id="Layer_1"
   x="0px"
   y="0px"
   viewBox="0 0 256 256"
   style="enable-background:new 0 0 256 256;"
   xml:space="preserve"
   inkscape:version="0.91 r13725"
   sodipodi:docname="vector_iD_icon-bw.svg"
   inkscape:export-filename="/home/gokul/lab_data/personal/pelican_personal_site/content/assets/logos/vector_iD_icon-bw.svg.png"
   inkscape:export-xdpi="90"
   inkscape:export-ydpi="90"><metadata
     id="metadata19"><rdf:RDF><cc:Work
         rdf:about=""><dc:format>image/svg+xml</dc:format><dc:type
           rdf:resource="http://purl.org/dc/dcmitype/StillImage" /></cc:Work></rdf:RDF></metadata><defs
     id="defs17" /><sodipodi:namedview
     pagecolor="#ffffff"
     bordercolor="#666666"
     borderopacity="1"
     objecttolerance="10"
     gridtolerance="10"
     guidetolerance="10"
     inkscape:pageopacity="0"
     inkscape:pageshadow="2"
     inkscape:window-width="636"
     inkscape:window-height="1161"
     id="namedview15"
     showgrid="false"
     inkscape:zoom="2.6074563"
     inkscape:cx="137.79314"
     inkscape:cy="124.86414"
     inkscape:window-x="1280"
     inkscape:window-y="282"
     inkscape:window-maximized="0"
     inkscape:current-layer="Layer_1" /><style
     type="text/css"
     id="style3">
	.st0{fill:#000000;}
	.st1{fill:#FFFFFF;}
</style><path
     style="fill:#ffffff;fill-opacity:1"
     d="M 128 0 C 57.3 0 0 57.3 0 128 C 0 198.7 57.3 256 128 256 C 198.7 256 256 198.7 256 128 C 256 57.3 198.7 0 128 0 z M 78.599609 46.699219 C 84.199609 46.699219 88.699219 51.300781 88.699219 56.800781 C 88.699219 62.300781 84.199609 66.900391 78.599609 66.900391 C 72.999609 66.900391 68.5 62.300781 68.5 56.800781 C 68.5 51.200781 72.999609 46.699219 78.599609 46.699219 z M 70.900391 79.099609 L 86.300781 79.099609 L 86.300781 127.5 L 86.300781 186.19922 L 70.900391 186.19922 L 70.900391 79.099609 z M 108.90039 79.099609 L 150.5 79.099609 C 190.1 79.099609 207.5 107.39922 207.5 132.69922 C 207.5 160.19922 185.99922 186.30078 150.69922 186.30078 L 108.90039 186.30078 L 108.90039 79.099609 z M 124.30078 93 L 124.30078 172.40039 L 148.80078 172.40039 C 183.70078 172.40039 191.69922 145.89922 191.69922 132.69922 C 191.69922 111.19922 178 93 148 93 L 124.30078 93 z "
     id="path5" /><g
     id="g7"><g
       id="g4784"><g
         id="g4789" /></g></g></svg>